<?xml version="1.0" encoding="UTF-8" standalone="no"?>
<!DOCTYPE svg PUBLIC "-//W3C//DTD SVG 1.1//EN"
 "http://www.w3.org/Graphics/SVG/1.1/DTD/svg11.dtd">
<!-- Generated by graphviz version 2.38.0 (20140413.2041)
 -->
<!-- Title: controllers_diagram Pages: 1 -->
<svg width="616pt" height="577pt"
 viewBox="0.00 0.00 616.04 577.00" xmlns="http://www.w3.org/2000/svg" xmlns:xlink="http://www.w3.org/1999/xlink">
<g id="graph0" class="graph" transform="scale(1 1) rotate(0) translate(238.217 339.5)">
<title>controllers_diagram</title>
<polygon fill="none" stroke="none" points="-238.217,237.5 -238.217,-339.5 377.821,-339.5 377.821,237.5 -238.217,237.5"/>
<!-- _diagram_info -->
<g id="node1" class="node"><title>_diagram_info</title>
<text text-anchor="start" x="8.31226" y="156.9" font-family="Times,serif" font-size="13.00">Controllers diagram</text>
<text text-anchor="start" x="8.31226" y="169.9" font-family="Times,serif" font-size="13.00">Date: Dec 16 2015 &#45; 10:13</text>
<text text-anchor="start" x="8.31226" y="182.9" font-family="Times,serif" font-size="13.00">Migration version: 20151216130820</text>
<text text-anchor="start" x="8.31226" y="195.9" font-family="Times,serif" font-size="13.00">Generated by RailRoady 1.4.2</text>
<text text-anchor="start" x="8.31226" y="208.9" font-family="Times,serif" font-size="13.00">http://railroady.prestonlee.com</text>
</g>
<!-- Admin::AutoresController -->
<g id="node2" class="node"><title>Admin::AutoresController</title>
<path fill="none" stroke="black" d="M-78.269,107C-78.269,107 62.269,107 62.269,107 68.269,107 74.269,101 74.269,95 74.269,95 74.269,-83 74.269,-83 74.269,-89 68.269,-95 62.269,-95 62.269,-95 -78.269,-95 -78.269,-95 -84.269,-95 -90.269,-89 -90.269,-83 -90.269,-83 -90.269,95 -90.269,95 -90.269,101 -84.269,107 -78.269,107"/>
<text text-anchor="middle" x="-8" y="-79.8" font-family="Times,serif" font-size="14.00">Admin::AutoresController</text>
<polyline fill="none" stroke="black" points="-90.269,-73 74.269,-73 "/>
<text text-anchor="start" x="-82.269" y="-57.8" font-family="Times,serif" font-size="14.00">create</text>
<text text-anchor="start" x="-82.269" y="-43.8" font-family="Times,serif" font-size="14.00">destroy</text>
<text text-anchor="start" x="-82.269" y="-29.8" font-family="Times,serif" font-size="14.00">edit</text>
<text text-anchor="start" x="-82.269" y="-15.8" font-family="Times,serif" font-size="14.00">index</text>
<text text-anchor="start" x="-82.269" y="-1.8" font-family="Times,serif" font-size="14.00">new</text>
<text text-anchor="start" x="-82.269" y="12.2" font-family="Times,serif" font-size="14.00">show</text>
<text text-anchor="start" x="-82.269" y="26.2" font-family="Times,serif" font-size="14.00">update</text>
<polyline fill="none" stroke="black" points="-90.269,33 74.269,33 "/>
<polyline fill="none" stroke="black" points="-90.269,57 74.269,57 "/>
<text text-anchor="start" x="-82.269" y="72.2" font-family="Times,serif" font-size="14.00">_layout</text>
<text text-anchor="start" x="-82.269" y="86.2" font-family="Times,serif" font-size="14.00">autor_params</text>
<text text-anchor="start" x="-82.269" y="100.2" font-family="Times,serif" font-size="14.00">set_autor</text>
</g>
<!-- Admin::CategoriasController -->
<g id="node3" class="node"><title>Admin::CategoriasController</title>
<path fill="none" stroke="black" d="M119.958,107C119.958,107 276.042,107 276.042,107 282.042,107 288.042,101 288.042,95 288.042,95 288.042,-83 288.042,-83 288.042,-89 282.042,-95 276.042,-95 276.042,-95 119.958,-95 119.958,-95 113.958,-95 107.958,-89 107.958,-83 107.958,-83 107.958,95 107.958,95 107.958,101 113.958,107 119.958,107"/>
<text text-anchor="middle" x="198" y="-79.8" font-family="Times,serif" font-size="14.00">Admin::CategoriasController</text>
<polyline fill="none" stroke="black" points="107.958,-73 288.042,-73 "/>
<text text-anchor="start" x="115.958" y="-57.8" font-family="Times,serif" font-size="14.00">create</text>
<text text-anchor="start" x="115.958" y="-43.8" font-family="Times,serif" font-size="14.00">destroy</text>
<text text-anchor="start" x="115.958" y="-29.8" font-family="Times,serif" font-size="14.00">edit</text>
<text text-anchor="start" x="115.958" y="-15.8" font-family="Times,serif" font-size="14.00">index</text>
<text text-anchor="start" x="115.958" y="-1.8" font-family="Times,serif" font-size="14.00">new</text>
<text text-anchor="start" x="115.958" y="12.2" font-family="Times,serif" font-size="14.00">show</text>
<text text-anchor="start" x="115.958" y="26.2" font-family="Times,serif" font-size="14.00">update</text>
<polyline fill="none" stroke="black" points="107.958,33 288.042,33 "/>
<polyline fill="none" stroke="black" points="107.958,57 288.042,57 "/>
<text text-anchor="start" x="115.958" y="72.2" font-family="Times,serif" font-size="14.00">_layout</text>
<text text-anchor="start" x="115.958" y="86.2" font-family="Times,serif" font-size="14.00">categoria_params</text>
<text text-anchor="start" x="115.958" y="100.2" font-family="Times,serif" font-size="14.00">set_categoria</text>
</g>
<!-- Admin::EditorasController -->
<g id="node4" class="node"><title>Admin::EditorasController</title>
<path fill="none" stroke="black" d="M137.565,-127C137.565,-127 280.435,-127 280.435,-127 286.435,-127 292.435,-133 292.435,-139 292.435,-139 292.435,-317 292.435,-317 292.435,-323 286.435,-329 280.435,-329 280.435,-329 137.565,-329 137.565,-329 131.565,-329 125.565,-323 125.565,-317 125.565,-317 125.565,-139 125.565,-139 125.565,-133 131.565,-127 137.565,-127"/>
<text text-anchor="middle" x="209" y="-313.8" font-family="Times,serif" font-size="14.00">Admin::EditorasController</text>
<polyline fill="none" stroke="black" points="125.565,-307 292.435,-307 "/>
<text text-anchor="start" x="133.565" y="-291.8" font-family="Times,serif" font-size="14.00">create</text>
<text text-anchor="start" x="133.565" y="-277.8" font-family="Times,serif" font-size="14.00">destroy</text>
<text text-anchor="start" x="133.565" y="-263.8" font-family="Times,serif" font-size="14.00">edit</text>
<text text-anchor="start" x="133.565" y="-249.8" font-family="Times,serif" font-size="14.00">index</text>
<text text-anchor="start" x="133.565" y="-235.8" font-family="Times,serif" font-size="14.00">new</text>
<text text-anchor="start" x="133.565" y="-221.8" font-family="Times,serif" font-size="14.00">show</text>
<text text-anchor="start" x="133.565" y="-207.8" font-family="Times,serif" font-size="14.00">update</text>
<polyline fill="none" stroke="black" points="125.565,-201 292.435,-201 "/>
<polyline fill="none" stroke="black" points="125.565,-177 292.435,-177 "/>
<text text-anchor="start" x="133.565" y="-161.8" font-family="Times,serif" font-size="14.00">_layout</text>
<text text-anchor="start" x="133.565" y="-147.8" font-family="Times,serif" font-size="14.00">editora_params</text>
<text text-anchor="start" x="133.565" y="-133.8" font-family="Times,serif" font-size="14.00">set_editora</text>
</g>
<!-- Admin::LivrosController -->
<g id="node5" class="node"><title>Admin::LivrosController</title>
<path fill="none" stroke="black" d="M-60.3828,-127C-60.3828,-127 72.3828,-127 72.3828,-127 78.3828,-127 84.3828,-133 84.3828,-139 84.3828,-139 84.3828,-317 84.3828,-317 84.3828,-323 78.3828,-329 72.3828,-329 72.3828,-329 -60.3828,-329 -60.3828,-329 -66.3828,-329 -72.3828,-323 -72.3828,-317 -72.3828,-317 -72.3828,-139 -72.3828,-139 -72.3828,-133 -66.3828,-127 -60.3828,-127"/>
<text text-anchor="middle" x="6" y="-313.8" font-family="Times,serif" font-size="14.00">Admin::LivrosController</text>
<polyline fill="none" stroke="black" points="-72.3828,-307 84.3828,-307 "/>
<text text-anchor="start" x="-64.3828" y="-291.8" font-family="Times,serif" font-size="14.00">create</text>
<text text-anchor="start" x="-64.3828" y="-277.8" font-family="Times,serif" font-size="14.00">destroy</text>
<text text-anchor="start" x="-64.3828" y="-263.8" font-family="Times,serif" font-size="14.00">edit</text>
<text text-anchor="start" x="-64.3828" y="-249.8" font-family="Times,serif" font-size="14.00">index</text>
<text text-anchor="start" x="-64.3828" y="-235.8" font-family="Times,serif" font-size="14.00">new</text>
<text text-anchor="start" x="-64.3828" y="-221.8" font-family="Times,serif" font-size="14.00">show</text>
<text text-anchor="start" x="-64.3828" y="-207.8" font-family="Times,serif" font-size="14.00">update</text>
<polyline fill="none" stroke="black" points="-72.3828,-201 84.3828,-201 "/>
<polyline fill="none" stroke="black" points="-72.3828,-177 84.3828,-177 "/>
<text text-anchor="start" x="-64.3828" y="-161.8" font-family="Times,serif" font-size="14.00">_layout</text>
<text text-anchor="start" x="-64.3828" y="-147.8" font-family="Times,serif" font-size="14.00">livro_params</text>
<text text-anchor="start" x="-64.3828" y="-133.8" font-family="Times,serif" font-size="14.00">set_livro</text>
</g>
<!-- AdminController -->
<g id="node6" class="node"><title>AdminController</title>
<path fill="none" stroke="black" d="M-222.217,-91C-222.217,-91 -133.783,-91 -133.783,-91 -127.783,-91 -121.783,-97 -121.783,-103 -121.783,-103 -121.783,-171 -121.783,-171 -121.783,-177 -127.783,-183 -133.783,-183 -133.783,-183 -222.217,-183 -222.217,-183 -228.217,-183 -234.217,-177 -234.217,-171 -234.217,-171 -234.217,-103 -234.217,-103 -234.217,-97 -228.217,-91 -222.217,-91"/>
<text text-anchor="middle" x="-178" y="-167.8" font-family="Times,serif" font-size="14.00">AdminController</text>
<polyline fill="none" stroke="black" points="-234.217,-161 -121.783,-161 "/>
<polyline fill="none" stroke="black" points="-234.217,-137 -121.783,-137 "/>
<polyline fill="none" stroke="black" points="-234.217,-113 -121.783,-113 "/>
<text text-anchor="start" x="-226.217" y="-97.8" font-family="Times,serif" font-size="14.00">_layout</text>
</g>
<!-- ApplicationController -->
<g id="node7" class="node"><title>ApplicationController</title>
<path fill="none" stroke="black" d="M246.179,233C246.179,233 361.821,233 361.821,233 367.821,233 373.821,227 373.821,221 373.821,221 373.821,153 373.821,153 373.821,147 367.821,141 361.821,141 361.821,141 246.179,141 246.179,141 240.179,141 234.179,147 234.179,153 234.179,153 234.179,221 234.179,221 234.179,227 240.179,233 246.179,233"/>
<text text-anchor="middle" x="304" y="156.2" font-family="Times,serif" font-size="14.00">ApplicationController</text>
<polyline fill="none" stroke="black" points="234.179,163 373.821,163 "/>
<polyline fill="none" stroke="black" points="234.179,187 373.821,187 "/>
<polyline fill="none" stroke="black" points="234.179,211 373.821,211 "/>
<text text-anchor="start" x="242.179" y="226.2" font-family="Times,serif" font-size="14.00">_layout</text>
</g>
<!-- LivrosController -->
<g id="node8" class="node"><title>LivrosController</title>
<path fill="none" stroke="black" d="M-204.048,-217C-204.048,-217 -117.952,-217 -117.952,-217 -111.952,-217 -105.952,-223 -105.952,-229 -105.952,-229 -105.952,-323 -105.952,-323 -105.952,-329 -111.952,-335 -117.952,-335 -117.952,-335 -204.048,-335 -204.048,-335 -210.048,-335 -216.048,-329 -216.048,-323 -216.048,-323 -216.048,-229 -216.048,-229 -216.048,-223 -210.048,-217 -204.048,-217"/>
<text text-anchor="middle" x="-161" y="-319.8" font-family="Times,serif" font-size="14.00">LivrosController</text>
<polyline fill="none" stroke="black" points="-216.048,-313 -105.952,-313 "/>
<text text-anchor="start" x="-208.048" y="-297.8" font-family="Times,serif" font-size="14.00">busca</text>
<text text-anchor="start" x="-208.048" y="-283.8" font-family="Times,serif" font-size="14.00">index</text>
<text text-anchor="start" x="-208.048" y="-269.8" font-family="Times,serif" font-size="14.00">show</text>
<polyline fill="none" stroke="black" points="-216.048,-263 -105.952,-263 "/>
<polyline fill="none" stroke="black" points="-216.048,-239 -105.952,-239 "/>
<text text-anchor="start" x="-208.048" y="-223.8" font-family="Times,serif" font-size="14.00">_layout</text>
</g>
<!-- PaginasController -->
<g id="node9" class="node"><title>PaginasController</title>
<path fill="none" stroke="black" d="M-221.548,35C-221.548,35 -128.452,35 -128.452,35 -122.452,35 -116.452,29 -116.452,23 -116.452,23 -116.452,-43 -116.452,-43 -116.452,-49 -122.452,-55 -128.452,-55 -128.452,-55 -221.548,-55 -221.548,-55 -227.548,-55 -233.548,-49 -233.548,-43 -233.548,-43 -233.548,23 -233.548,23 -233.548,29 -227.548,35 -221.548,35"/>
<text text-anchor="middle" x="-175" y="-39.8" font-family="Times,serif" font-size="14.00">PaginasController</text>
<polyline fill="none" stroke="black" points="-233.548,-33 -116.452,-33 "/>
<text text-anchor="start" x="-225.548" y="-17.8" font-family="Times,serif" font-size="14.00">principal</text>
<polyline fill="none" stroke="black" points="-233.548,-11 -116.452,-11 "/>
<polyline fill="none" stroke="black" points="-233.548,13 -116.452,13 "/>
<text text-anchor="start" x="-225.548" y="28.2" font-family="Times,serif" font-size="14.00">_layout</text>
</g>
</g>
</svg>
