<?xml version="1.0" encoding="UTF-8" standalone="no"?>
<!DOCTYPE svg PUBLIC "-//W3C//DTD SVG 1.1//EN"
 "http://www.w3.org/Graphics/SVG/1.1/DTD/svg11.dtd">
<!-- Generated by graphviz version 2.38.0 (20140413.2041)
 -->
<!-- Title: controllers_diagram Pages: 1 -->
<svg width="316pt" height="225pt"
 viewBox="0.00 0.00 315.51 225.00" xmlns="http://www.w3.org/2000/svg" xmlns:xlink="http://www.w3.org/1999/xlink">
<g id="graph0" class="graph" transform="scale(1 1) rotate(0) translate(115.688 179.5)">
<title>controllers_diagram</title>
<polygon fill="none" stroke="none" points="-115.688,45.5 -115.688,-179.5 199.821,-179.5 199.821,45.5 -115.688,45.5"/>
<!-- _diagram_info -->
<g id="node1" class="node"><title>_diagram_info</title>
<text text-anchor="start" x="-103.688" y="-17.1" font-family="Times,serif" font-size="13.00">Controllers diagram</text>
<text text-anchor="start" x="-103.688" y="-4.1" font-family="Times,serif" font-size="13.00">Date: Dec 14 2015 &#45; 09:37</text>
<text text-anchor="start" x="-103.688" y="8.9" font-family="Times,serif" font-size="13.00">Migration version: 20151214123107</text>
<text text-anchor="start" x="-103.688" y="21.9" font-family="Times,serif" font-size="13.00">Generated by RailRoady 1.4.2</text>
<text text-anchor="start" x="-103.688" y="34.9" font-family="Times,serif" font-size="13.00">http://railroady.prestonlee.com</text>
</g>
<!-- ApplicationController -->
<g id="node2" class="node"><title>ApplicationController</title>
<path fill="none" stroke="black" d="M68.1792,-57C68.1792,-57 183.821,-57 183.821,-57 189.821,-57 195.821,-63 195.821,-69 195.821,-69 195.821,-137 195.821,-137 195.821,-143 189.821,-149 183.821,-149 183.821,-149 68.1792,-149 68.1792,-149 62.1792,-149 56.1792,-143 56.1792,-137 56.1792,-137 56.1792,-69 56.1792,-69 56.1792,-63 62.1792,-57 68.1792,-57"/>
<text text-anchor="middle" x="126" y="-133.8" font-family="Times,serif" font-size="14.00">ApplicationController</text>
<polyline fill="none" stroke="black" points="56.1792,-127 195.821,-127 "/>
<polyline fill="none" stroke="black" points="56.1792,-103 195.821,-103 "/>
<polyline fill="none" stroke="black" points="56.1792,-79 195.821,-79 "/>
<text text-anchor="start" x="64.1792" y="-63.8" font-family="Times,serif" font-size="14.00">_layout</text>
</g>
<!-- PaginasController -->
<g id="node3" class="node"><title>PaginasController</title>
<path fill="none" stroke="black" d="M-71.5483,-85C-71.5483,-85 21.5483,-85 21.5483,-85 27.5483,-85 33.5483,-91 33.5483,-97 33.5483,-97 33.5483,-163 33.5483,-163 33.5483,-169 27.5483,-175 21.5483,-175 21.5483,-175 -71.5483,-175 -71.5483,-175 -77.5483,-175 -83.5483,-169 -83.5483,-163 -83.5483,-163 -83.5483,-97 -83.5483,-97 -83.5483,-91 -77.5483,-85 -71.5483,-85"/>
<text text-anchor="middle" x="-25" y="-159.8" font-family="Times,serif" font-size="14.00">PaginasController</text>
<polyline fill="none" stroke="black" points="-83.5483,-153 33.5483,-153 "/>
<text text-anchor="start" x="-75.5483" y="-137.8" font-family="Times,serif" font-size="14.00">principal</text>
<polyline fill="none" stroke="black" points="-83.5483,-131 33.5483,-131 "/>
<polyline fill="none" stroke="black" points="-83.5483,-107 33.5483,-107 "/>
<text text-anchor="start" x="-75.5483" y="-91.8" font-family="Times,serif" font-size="14.00">_layout</text>
</g>
</g>
</svg>
