<?xml version="1.0" encoding="UTF-8" standalone="no"?>
<!DOCTYPE svg PUBLIC "-//W3C//DTD SVG 1.1//EN"
 "http://www.w3.org/Graphics/SVG/1.1/DTD/svg11.dtd">
<!-- Generated by graphviz version 2.38.0 (20140413.2041)
 -->
<!-- Title: models_diagram Pages: 1 -->
<svg width="692pt" height="302pt"
 viewBox="0.00 0.00 692.19 302.00" xmlns="http://www.w3.org/2000/svg" xmlns:xlink="http://www.w3.org/1999/xlink">
<g id="graph0" class="graph" transform="scale(1 1) rotate(0) translate(4 298)">
<title>models_diagram</title>
<polygon fill="none" stroke="none" points="-4,4 -4,-298 688.193,-298 688.193,4 -4,4"/>
<!-- _diagram_info -->
<g id="node1" class="node"><title>_diagram_info</title>
<text text-anchor="start" x="8" y="-265.6" font-family="Times,serif" font-size="13.00">Models diagram</text>
<text text-anchor="start" x="8" y="-252.6" font-family="Times,serif" font-size="13.00">Date: Dec 14 2015 &#45; 09:37</text>
<text text-anchor="start" x="8" y="-239.6" font-family="Times,serif" font-size="13.00">Migration version: 20151214123107</text>
<text text-anchor="start" x="8" y="-226.6" font-family="Times,serif" font-size="13.00">Generated by RailRoady 1.4.2</text>
<text text-anchor="start" x="8" y="-213.6" font-family="Times,serif" font-size="13.00">http://railroady.prestonlee.com</text>
</g>
<!-- Autor -->
<g id="node2" class="node"><title>Autor</title>
<path fill="none" stroke="black" d="M237.134,-193.5C237.134,-193.5 370.241,-193.5 370.241,-193.5 376.241,-193.5 382.241,-199.5 382.241,-205.5 382.241,-205.5 382.241,-281.5 382.241,-281.5 382.241,-287.5 376.241,-293.5 370.241,-293.5 370.241,-293.5 237.134,-293.5 237.134,-293.5 231.134,-293.5 225.134,-287.5 225.134,-281.5 225.134,-281.5 225.134,-205.5 225.134,-205.5 225.134,-199.5 231.134,-193.5 237.134,-193.5"/>
<text text-anchor="middle" x="303.688" y="-278.3" font-family="Times,serif" font-size="14.00">Autor</text>
<polyline fill="none" stroke="black" points="225.134,-271.5 382.241,-271.5 "/>
<text text-anchor="start" x="233.134" y="-256.3" font-family="Times,serif" font-size="14.00">id :int(11)</text>
<text text-anchor="start" x="233.134" y="-242.3" font-family="Times,serif" font-size="14.00">nome :varchar(255)</text>
<text text-anchor="start" x="233.134" y="-228.3" font-family="Times,serif" font-size="14.00">sobrenome :varchar(255)</text>
<text text-anchor="start" x="233.134" y="-214.3" font-family="Times,serif" font-size="14.00">created_at :datetime</text>
<text text-anchor="start" x="233.134" y="-200.3" font-family="Times,serif" font-size="14.00">updated_at :datetime</text>
</g>
<!-- Livro -->
<g id="node5" class="node"><title>Livro</title>
<path fill="none" stroke="black" d="M412.182,-0.5C412.182,-0.5 521.193,-0.5 521.193,-0.5 527.193,-0.5 533.193,-6.5 533.193,-12.5 533.193,-12.5 533.193,-144.5 533.193,-144.5 533.193,-150.5 527.193,-156.5 521.193,-156.5 521.193,-156.5 412.182,-156.5 412.182,-156.5 406.182,-156.5 400.182,-150.5 400.182,-144.5 400.182,-144.5 400.182,-12.5 400.182,-12.5 400.182,-6.5 406.182,-0.5 412.182,-0.5"/>
<text text-anchor="middle" x="466.688" y="-141.3" font-family="Times,serif" font-size="14.00">Livro</text>
<polyline fill="none" stroke="black" points="400.182,-134.5 533.193,-134.5 "/>
<text text-anchor="start" x="408.182" y="-119.3" font-family="Times,serif" font-size="14.00">id :int(11)</text>
<text text-anchor="start" x="408.182" y="-105.3" font-family="Times,serif" font-size="14.00">categoria_id :int(11)</text>
<text text-anchor="start" x="408.182" y="-91.3" font-family="Times,serif" font-size="14.00">editora_id :int(11)</text>
<text text-anchor="start" x="408.182" y="-77.3" font-family="Times,serif" font-size="14.00">titulo :varchar(255)</text>
<text text-anchor="start" x="408.182" y="-63.3" font-family="Times,serif" font-size="14.00">isbn :varchar(255)</text>
<text text-anchor="start" x="408.182" y="-49.3" font-family="Times,serif" font-size="14.00">descricao :text</text>
<text text-anchor="start" x="408.182" y="-35.3" font-family="Times,serif" font-size="14.00">ano :int(11)</text>
<text text-anchor="start" x="408.182" y="-21.3" font-family="Times,serif" font-size="14.00">created_at :datetime</text>
<text text-anchor="start" x="408.182" y="-7.3" font-family="Times,serif" font-size="14.00">updated_at :datetime</text>
</g>
<!-- Autor&#45;&gt;Livro -->
<g id="edge1" class="edge"><title>Autor&#45;&gt;Livro</title>
<path fill="none" stroke="#69b6cd" d="M360.448,-185.74C370.934,-175.254 382.024,-164.164 392.927,-153.261"/>
<polygon fill="#69b6cd" stroke="#69b6cd" points="360.107,-186.081 349.853,-189.97 356.571,-189.617 353.035,-193.152 353.035,-193.152 353.035,-193.152 356.571,-189.617 356.217,-196.334 360.107,-186.081 360.107,-186.081"/>
<polygon fill="#69b6cd" stroke="#69b6cd" points="392.986,-153.202 403.239,-149.313 396.521,-149.666 400.057,-146.131 400.057,-146.131 400.057,-146.131 396.521,-149.666 396.875,-142.949 392.986,-153.202 392.986,-153.202"/>
</g>
<!-- Categoria -->
<g id="node3" class="node"><title>Categoria</title>
<path fill="none" stroke="black" d="M412.182,-200.5C412.182,-200.5 521.193,-200.5 521.193,-200.5 527.193,-200.5 533.193,-206.5 533.193,-212.5 533.193,-212.5 533.193,-274.5 533.193,-274.5 533.193,-280.5 527.193,-286.5 521.193,-286.5 521.193,-286.5 412.182,-286.5 412.182,-286.5 406.182,-286.5 400.182,-280.5 400.182,-274.5 400.182,-274.5 400.182,-212.5 400.182,-212.5 400.182,-206.5 406.182,-200.5 412.182,-200.5"/>
<text text-anchor="middle" x="466.688" y="-271.3" font-family="Times,serif" font-size="14.00">Categoria</text>
<polyline fill="none" stroke="black" points="400.182,-264.5 533.193,-264.5 "/>
<text text-anchor="start" x="408.182" y="-249.3" font-family="Times,serif" font-size="14.00">id :int(11)</text>
<text text-anchor="start" x="408.182" y="-235.3" font-family="Times,serif" font-size="14.00">nome :varchar(255)</text>
<text text-anchor="start" x="408.182" y="-221.3" font-family="Times,serif" font-size="14.00">created_at :datetime</text>
<text text-anchor="start" x="408.182" y="-207.3" font-family="Times,serif" font-size="14.00">updated_at :datetime</text>
</g>
<!-- Categoria&#45;&gt;Livro -->
<g id="edge2" class="edge"><title>Categoria&#45;&gt;Livro</title>
<path fill="none" stroke="#77021b" d="M466.688,-191.786C466.688,-183.792 466.688,-175.335 466.688,-166.792"/>
<ellipse fill="none" stroke="#77021b" cx="466.688" cy="-196.099" rx="4" ry="4"/>
<polygon fill="#77021b" stroke="#77021b" points="466.688,-166.748 471.188,-156.748 466.688,-161.748 466.688,-156.748 466.688,-156.748 466.688,-156.748 466.688,-161.748 462.188,-156.748 466.688,-166.748 466.688,-166.748"/>
</g>
<!-- Editora -->
<g id="node4" class="node"><title>Editora</title>
<path fill="none" stroke="black" d="M563.182,-200.5C563.182,-200.5 672.193,-200.5 672.193,-200.5 678.193,-200.5 684.193,-206.5 684.193,-212.5 684.193,-212.5 684.193,-274.5 684.193,-274.5 684.193,-280.5 678.193,-286.5 672.193,-286.5 672.193,-286.5 563.182,-286.5 563.182,-286.5 557.182,-286.5 551.182,-280.5 551.182,-274.5 551.182,-274.5 551.182,-212.5 551.182,-212.5 551.182,-206.5 557.182,-200.5 563.182,-200.5"/>
<text text-anchor="middle" x="617.688" y="-271.3" font-family="Times,serif" font-size="14.00">Editora</text>
<polyline fill="none" stroke="black" points="551.182,-264.5 684.193,-264.5 "/>
<text text-anchor="start" x="559.182" y="-249.3" font-family="Times,serif" font-size="14.00">id :int(11)</text>
<text text-anchor="start" x="559.182" y="-235.3" font-family="Times,serif" font-size="14.00">nome :varchar(255)</text>
<text text-anchor="start" x="559.182" y="-221.3" font-family="Times,serif" font-size="14.00">created_at :datetime</text>
<text text-anchor="start" x="559.182" y="-207.3" font-family="Times,serif" font-size="14.00">updated_at :datetime</text>
</g>
<!-- Editora&#45;&gt;Livro -->
<g id="edge3" class="edge"><title>Editora&#45;&gt;Livro</title>
<path fill="none" stroke="#9b469f" d="M572.801,-194.047C562.516,-182.943 551.317,-170.855 540.177,-158.829"/>
<ellipse fill="none" stroke="#9b469f" cx="575.69" cy="-197.165" rx="4.00002" ry="4.00002"/>
<polygon fill="#9b469f" stroke="#9b469f" points="540.053,-158.695 536.558,-148.301 536.655,-155.027 533.257,-151.359 533.257,-151.359 533.257,-151.359 536.655,-155.027 529.956,-154.417 540.053,-158.695 540.053,-158.695"/>
</g>
</g>
</svg>
