<?xml version="1.0" encoding="UTF-8" standalone="no"?>
<!DOCTYPE svg PUBLIC "-//W3C//DTD SVG 1.1//EN"
 "http://www.w3.org/Graphics/SVG/1.1/DTD/svg11.dtd">
<!-- Generated by graphviz version 2.38.0 (20140413.2041)
 -->
<!-- Title: models_diagram Pages: 1 -->
<svg width="968pt" height="509pt"
 viewBox="0.00 0.00 967.73 509.00" xmlns="http://www.w3.org/2000/svg" xmlns:xlink="http://www.w3.org/1999/xlink">
<g id="graph0" class="graph" transform="scale(1 1) rotate(0) translate(4 505)">
<title>models_diagram</title>
<polygon fill="none" stroke="none" points="-4,4 -4,-505 963.735,-505 963.735,4 -4,4"/>
<!-- _diagram_info -->
<g id="node1" class="node"><title>_diagram_info</title>
<text text-anchor="start" x="8" y="-465.6" font-family="Times,serif" font-size="13.00">Models diagram</text>
<text text-anchor="start" x="8" y="-452.6" font-family="Times,serif" font-size="13.00">Date: Dec 16 2015 &#45; 10:13</text>
<text text-anchor="start" x="8" y="-439.6" font-family="Times,serif" font-size="13.00">Migration version: 20151216130820</text>
<text text-anchor="start" x="8" y="-426.6" font-family="Times,serif" font-size="13.00">Generated by RailRoady 1.4.2</text>
<text text-anchor="start" x="8" y="-413.6" font-family="Times,serif" font-size="13.00">http://railroady.prestonlee.com</text>
</g>
<!-- Autor -->
<g id="node2" class="node"><title>Autor</title>
<path fill="none" stroke="black" d="M237.134,-393.5C237.134,-393.5 370.241,-393.5 370.241,-393.5 376.241,-393.5 382.241,-399.5 382.241,-405.5 382.241,-405.5 382.241,-481.5 382.241,-481.5 382.241,-487.5 376.241,-493.5 370.241,-493.5 370.241,-493.5 237.134,-493.5 237.134,-493.5 231.134,-493.5 225.134,-487.5 225.134,-481.5 225.134,-481.5 225.134,-405.5 225.134,-405.5 225.134,-399.5 231.134,-393.5 237.134,-393.5"/>
<text text-anchor="middle" x="303.688" y="-478.3" font-family="Times,serif" font-size="14.00">Autor</text>
<polyline fill="none" stroke="black" points="225.134,-471.5 382.241,-471.5 "/>
<text text-anchor="start" x="233.134" y="-456.3" font-family="Times,serif" font-size="14.00">id :int(11)</text>
<text text-anchor="start" x="233.134" y="-442.3" font-family="Times,serif" font-size="14.00">nome :varchar(255)</text>
<text text-anchor="start" x="233.134" y="-428.3" font-family="Times,serif" font-size="14.00">sobrenome :varchar(255)</text>
<text text-anchor="start" x="233.134" y="-414.3" font-family="Times,serif" font-size="14.00">created_at :datetime</text>
<text text-anchor="start" x="233.134" y="-400.3" font-family="Times,serif" font-size="14.00">updated_at :datetime</text>
</g>
<!-- Livro -->
<g id="node5" class="node"><title>Livro</title>
<path fill="none" stroke="black" d="M412.182,-165.5C412.182,-165.5 521.193,-165.5 521.193,-165.5 527.193,-165.5 533.193,-171.5 533.193,-177.5 533.193,-177.5 533.193,-309.5 533.193,-309.5 533.193,-315.5 527.193,-321.5 521.193,-321.5 521.193,-321.5 412.182,-321.5 412.182,-321.5 406.182,-321.5 400.182,-315.5 400.182,-309.5 400.182,-309.5 400.182,-177.5 400.182,-177.5 400.182,-171.5 406.182,-165.5 412.182,-165.5"/>
<text text-anchor="middle" x="466.688" y="-306.3" font-family="Times,serif" font-size="14.00">Livro</text>
<polyline fill="none" stroke="black" points="400.182,-299.5 533.193,-299.5 "/>
<text text-anchor="start" x="408.182" y="-284.3" font-family="Times,serif" font-size="14.00">id :int(11)</text>
<text text-anchor="start" x="408.182" y="-270.3" font-family="Times,serif" font-size="14.00">categoria_id :int(11)</text>
<text text-anchor="start" x="408.182" y="-256.3" font-family="Times,serif" font-size="14.00">editora_id :int(11)</text>
<text text-anchor="start" x="408.182" y="-242.3" font-family="Times,serif" font-size="14.00">titulo :varchar(255)</text>
<text text-anchor="start" x="408.182" y="-228.3" font-family="Times,serif" font-size="14.00">isbn :varchar(255)</text>
<text text-anchor="start" x="408.182" y="-214.3" font-family="Times,serif" font-size="14.00">descricao :text</text>
<text text-anchor="start" x="408.182" y="-200.3" font-family="Times,serif" font-size="14.00">ano :int(11)</text>
<text text-anchor="start" x="408.182" y="-186.3" font-family="Times,serif" font-size="14.00">created_at :datetime</text>
<text text-anchor="start" x="408.182" y="-172.3" font-family="Times,serif" font-size="14.00">updated_at :datetime</text>
</g>
<!-- Autor&#45;&gt;Livro -->
<g id="edge1" class="edge"><title>Autor&#45;&gt;Livro</title>
<path fill="none" stroke="#f475fc" d="M350.592,-385.525C365.008,-368.013 381.197,-348.347 396.806,-329.387"/>
<polygon fill="#f475fc" stroke="#f475fc" points="350.545,-385.581 340.715,-390.442 347.367,-389.442 344.189,-393.302 344.189,-393.302 344.189,-393.302 347.367,-389.442 347.664,-396.162 350.545,-385.581 350.545,-385.581"/>
<polygon fill="#f475fc" stroke="#f475fc" points="396.863,-329.318 406.693,-324.457 400.041,-325.458 403.219,-321.597 403.219,-321.597 403.219,-321.597 400.041,-325.458 399.745,-318.737 396.863,-329.318 396.863,-329.318"/>
</g>
<!-- Categoria -->
<g id="node3" class="node"><title>Categoria</title>
<path fill="none" stroke="black" d="M412.182,-400.5C412.182,-400.5 521.193,-400.5 521.193,-400.5 527.193,-400.5 533.193,-406.5 533.193,-412.5 533.193,-412.5 533.193,-474.5 533.193,-474.5 533.193,-480.5 527.193,-486.5 521.193,-486.5 521.193,-486.5 412.182,-486.5 412.182,-486.5 406.182,-486.5 400.182,-480.5 400.182,-474.5 400.182,-474.5 400.182,-412.5 400.182,-412.5 400.182,-406.5 406.182,-400.5 412.182,-400.5"/>
<text text-anchor="middle" x="466.688" y="-471.3" font-family="Times,serif" font-size="14.00">Categoria</text>
<polyline fill="none" stroke="black" points="400.182,-464.5 533.193,-464.5 "/>
<text text-anchor="start" x="408.182" y="-449.3" font-family="Times,serif" font-size="14.00">id :int(11)</text>
<text text-anchor="start" x="408.182" y="-435.3" font-family="Times,serif" font-size="14.00">nome :varchar(255)</text>
<text text-anchor="start" x="408.182" y="-421.3" font-family="Times,serif" font-size="14.00">created_at :datetime</text>
<text text-anchor="start" x="408.182" y="-407.3" font-family="Times,serif" font-size="14.00">updated_at :datetime</text>
</g>
<!-- Categoria&#45;&gt;Livro -->
<g id="edge2" class="edge"><title>Categoria&#45;&gt;Livro</title>
<path fill="none" stroke="#b9e8fa" d="M466.688,-391.759C466.688,-373.444 466.688,-352.212 466.688,-331.669"/>
<ellipse fill="none" stroke="#b9e8fa" cx="466.688" cy="-396.024" rx="4" ry="4"/>
<polygon fill="#b9e8fa" stroke="#b9e8fa" points="466.688,-331.655 471.188,-321.655 466.688,-326.655 466.688,-321.655 466.688,-321.655 466.688,-321.655 466.688,-326.655 462.188,-321.656 466.688,-331.655 466.688,-331.655"/>
</g>
<!-- Editora -->
<g id="node4" class="node"><title>Editora</title>
<path fill="none" stroke="black" d="M563.182,-400.5C563.182,-400.5 672.193,-400.5 672.193,-400.5 678.193,-400.5 684.193,-406.5 684.193,-412.5 684.193,-412.5 684.193,-474.5 684.193,-474.5 684.193,-480.5 678.193,-486.5 672.193,-486.5 672.193,-486.5 563.182,-486.5 563.182,-486.5 557.182,-486.5 551.182,-480.5 551.182,-474.5 551.182,-474.5 551.182,-412.5 551.182,-412.5 551.182,-406.5 557.182,-400.5 563.182,-400.5"/>
<text text-anchor="middle" x="617.688" y="-471.3" font-family="Times,serif" font-size="14.00">Editora</text>
<polyline fill="none" stroke="black" points="551.182,-464.5 684.193,-464.5 "/>
<text text-anchor="start" x="559.182" y="-449.3" font-family="Times,serif" font-size="14.00">id :int(11)</text>
<text text-anchor="start" x="559.182" y="-435.3" font-family="Times,serif" font-size="14.00">nome :varchar(255)</text>
<text text-anchor="start" x="559.182" y="-421.3" font-family="Times,serif" font-size="14.00">created_at :datetime</text>
<text text-anchor="start" x="559.182" y="-407.3" font-family="Times,serif" font-size="14.00">updated_at :datetime</text>
</g>
<!-- Editora&#45;&gt;Livro -->
<g id="edge3" class="edge"><title>Editora&#45;&gt;Livro</title>
<path fill="none" stroke="#9c1297" d="M580.279,-393.448C565.569,-374.158 548.244,-351.441 531.617,-329.639"/>
<ellipse fill="none" stroke="#9c1297" cx="582.869" cy="-396.843" rx="4.00002" ry="4.00002"/>
<polygon fill="#9c1297" stroke="#9c1297" points="531.593,-329.607 529.107,-318.927 528.561,-325.631 525.529,-321.655 525.529,-321.655 525.529,-321.655 528.561,-325.631 521.95,-324.384 531.593,-329.607 531.593,-329.607"/>
</g>
<!-- Permission -->
<g id="node6" class="node"><title>Permission</title>
<path fill="none" stroke="black" d="M726.182,-0.5C726.182,-0.5 835.193,-0.5 835.193,-0.5 841.193,-0.5 847.193,-6.5 847.193,-12.5 847.193,-12.5 847.193,-88.5 847.193,-88.5 847.193,-94.5 841.193,-100.5 835.193,-100.5 835.193,-100.5 726.182,-100.5 726.182,-100.5 720.182,-100.5 714.182,-94.5 714.182,-88.5 714.182,-88.5 714.182,-12.5 714.182,-12.5 714.182,-6.5 720.182,-0.5 726.182,-0.5"/>
<text text-anchor="middle" x="780.688" y="-85.3" font-family="Times,serif" font-size="14.00">Permission</text>
<polyline fill="none" stroke="black" points="714.182,-78.5 847.193,-78.5 "/>
<text text-anchor="start" x="722.182" y="-63.3" font-family="Times,serif" font-size="14.00">id :int(11)</text>
<text text-anchor="start" x="722.182" y="-49.3" font-family="Times,serif" font-size="14.00">user_id :int(11)</text>
<text text-anchor="start" x="722.182" y="-35.3" font-family="Times,serif" font-size="14.00">role_id :int(11)</text>
<text text-anchor="start" x="722.182" y="-21.3" font-family="Times,serif" font-size="14.00">created_at :datetime</text>
<text text-anchor="start" x="722.182" y="-7.3" font-family="Times,serif" font-size="14.00">updated_at :datetime</text>
</g>
<!-- Role -->
<g id="node7" class="node"><title>Role</title>
<path fill="none" stroke="black" d="M713.744,-386.5C713.744,-386.5 847.631,-386.5 847.631,-386.5 853.631,-386.5 859.631,-392.5 859.631,-398.5 859.631,-398.5 859.631,-488.5 859.631,-488.5 859.631,-494.5 853.631,-500.5 847.631,-500.5 847.631,-500.5 713.744,-500.5 713.744,-500.5 707.744,-500.5 701.744,-494.5 701.744,-488.5 701.744,-488.5 701.744,-398.5 701.744,-398.5 701.744,-392.5 707.744,-386.5 713.744,-386.5"/>
<text text-anchor="middle" x="780.688" y="-485.3" font-family="Times,serif" font-size="14.00">Role</text>
<polyline fill="none" stroke="black" points="701.744,-478.5 859.631,-478.5 "/>
<text text-anchor="start" x="709.744" y="-463.3" font-family="Times,serif" font-size="14.00">id :int(11)</text>
<text text-anchor="start" x="709.744" y="-449.3" font-family="Times,serif" font-size="14.00">name :varchar(255)</text>
<text text-anchor="start" x="709.744" y="-435.3" font-family="Times,serif" font-size="14.00">value :varchar(255)</text>
<text text-anchor="start" x="709.744" y="-421.3" font-family="Times,serif" font-size="14.00">description :varchar(255)</text>
<text text-anchor="start" x="709.744" y="-407.3" font-family="Times,serif" font-size="14.00">created_at :datetime</text>
<text text-anchor="start" x="709.744" y="-393.3" font-family="Times,serif" font-size="14.00">updated_at :datetime</text>
</g>
<!-- Role&#45;&gt;Permission -->
<g id="edge4" class="edge"><title>Role&#45;&gt;Permission</title>
<path fill="none" stroke="#cf4410" d="M741.136,-378.893C736.841,-369.497 733.143,-359.705 730.688,-350 707.471,-258.224 705.932,-228.372 730.688,-137 733.191,-127.761 736.969,-118.498 741.35,-109.657"/>
<ellipse fill="none" stroke="#cf4410" cx="742.97" cy="-382.727" rx="4.00002" ry="4.00002"/>
<polygon fill="#cf4410" stroke="#cf4410" points="741.45,-109.467 750.088,-102.711 743.778,-105.042 746.106,-100.616 746.106,-100.616 746.106,-100.616 743.778,-105.042 742.123,-98.5216 741.45,-109.467 741.45,-109.467"/>
</g>
<!-- User -->
<g id="node8" class="node"><title>User</title>
<path fill="none" stroke="black" d="M751.641,-137.5C751.641,-137.5 947.735,-137.5 947.735,-137.5 953.735,-137.5 959.735,-143.5 959.735,-149.5 959.735,-149.5 959.735,-337.5 959.735,-337.5 959.735,-343.5 953.735,-349.5 947.735,-349.5 947.735,-349.5 751.641,-349.5 751.641,-349.5 745.641,-349.5 739.641,-343.5 739.641,-337.5 739.641,-337.5 739.641,-149.5 739.641,-149.5 739.641,-143.5 745.641,-137.5 751.641,-137.5"/>
<text text-anchor="middle" x="849.688" y="-334.3" font-family="Times,serif" font-size="14.00">User</text>
<polyline fill="none" stroke="black" points="739.641,-327.5 959.735,-327.5 "/>
<text text-anchor="start" x="747.641" y="-312.3" font-family="Times,serif" font-size="14.00">id :int(11)</text>
<text text-anchor="start" x="747.641" y="-298.3" font-family="Times,serif" font-size="14.00">email :varchar(255)</text>
<text text-anchor="start" x="747.641" y="-284.3" font-family="Times,serif" font-size="14.00">encrypted_password :varchar(255)</text>
<text text-anchor="start" x="747.641" y="-270.3" font-family="Times,serif" font-size="14.00">reset_password_token :varchar(255)</text>
<text text-anchor="start" x="747.641" y="-256.3" font-family="Times,serif" font-size="14.00">reset_password_sent_at :datetime</text>
<text text-anchor="start" x="747.641" y="-242.3" font-family="Times,serif" font-size="14.00">remember_created_at :datetime</text>
<text text-anchor="start" x="747.641" y="-228.3" font-family="Times,serif" font-size="14.00">sign_in_count :int(11)</text>
<text text-anchor="start" x="747.641" y="-214.3" font-family="Times,serif" font-size="14.00">current_sign_in_at :datetime</text>
<text text-anchor="start" x="747.641" y="-200.3" font-family="Times,serif" font-size="14.00">last_sign_in_at :datetime</text>
<text text-anchor="start" x="747.641" y="-186.3" font-family="Times,serif" font-size="14.00">current_sign_in_ip :varchar(255)</text>
<text text-anchor="start" x="747.641" y="-172.3" font-family="Times,serif" font-size="14.00">last_sign_in_ip :varchar(255)</text>
<text text-anchor="start" x="747.641" y="-158.3" font-family="Times,serif" font-size="14.00">created_at :datetime</text>
<text text-anchor="start" x="747.641" y="-144.3" font-family="Times,serif" font-size="14.00">updated_at :datetime</text>
</g>
<!-- Role&#45;&gt;User -->
<g id="edge5" class="edge"><title>Role&#45;&gt;User</title>
<path fill="none" stroke="#dcf406" d="M803.646,-376.619C805.594,-371.029 807.598,-365.279 809.628,-359.453"/>
<polygon fill="#dcf406" stroke="#dcf406" points="803.567,-376.848 796.026,-384.81 801.921,-381.569 800.276,-386.291 800.276,-386.291 800.276,-386.291 801.921,-381.569 804.525,-387.772 803.567,-376.848 803.567,-376.848"/>
<polygon fill="#dcf406" stroke="#dcf406" points="809.774,-359.035 817.314,-351.073 811.419,-354.313 813.065,-349.592 813.065,-349.592 813.065,-349.592 811.419,-354.313 808.815,-348.111 809.774,-359.035 809.774,-359.035"/>
</g>
<!-- User&#45;&gt;Permission -->
<g id="edge6" class="edge"><title>User&#45;&gt;Permission</title>
<path fill="none" stroke="#1229c1" d="M808.889,-129.565C806.528,-123.03 804.209,-116.608 801.976,-110.427"/>
<ellipse fill="none" stroke="#1229c1" cx="810.297" cy="-133.461" rx="4.00001" ry="4.00001"/>
<polygon fill="#1229c1" stroke="#1229c1" points="801.943,-110.336 802.777,-99.4018 800.244,-105.633 798.545,-100.931 798.545,-100.931 798.545,-100.931 800.244,-105.633 794.313,-102.46 801.943,-110.336 801.943,-110.336"/>
</g>
</g>
</svg>
