<?xml version="1.0" encoding="UTF-8" standalone="no"?>
<!DOCTYPE svg PUBLIC "-//W3C//DTD SVG 1.1//EN"
 "http://www.w3.org/Graphics/SVG/1.1/DTD/svg11.dtd">
<!-- Generated by graphviz version 2.38.0 (20140413.2041)
 -->
<!-- Title: models_diagram Pages: 1 -->
<svg width="492pt" height="153pt"
 viewBox="0.00 0.00 491.82 153.00" xmlns="http://www.w3.org/2000/svg" xmlns:xlink="http://www.w3.org/1999/xlink">
<g id="graph0" class="graph" transform="scale(1 1) rotate(0) translate(4 149)">
<title>models_diagram</title>
<polygon fill="none" stroke="none" points="-4,4 -4,-149 487.824,-149 487.824,4 -4,4"/>
<!-- _diagram_info -->
<g id="node1" class="node"><title>_diagram_info</title>
<text text-anchor="start" x="8" y="-130.6" font-family="Times,serif" font-size="13.00">Models diagram</text>
<text text-anchor="start" x="8" y="-117.6" font-family="Times,serif" font-size="13.00">Date: Dec 14 2015 &#45; 09:37</text>
<text text-anchor="start" x="8" y="-104.6" font-family="Times,serif" font-size="13.00">Migration version: 20151214123107</text>
<text text-anchor="start" x="8" y="-91.6" font-family="Times,serif" font-size="13.00">Generated by RailRoady 1.4.2</text>
<text text-anchor="start" x="8" y="-78.6" font-family="Times,serif" font-size="13.00">http://railroady.prestonlee.com</text>
</g>
<!-- Autor -->
<g id="node2" class="node"><title>Autor</title>
<ellipse fill="none" stroke="black" cx="255.688" cy="-108.5" rx="30.9793" ry="18"/>
<text text-anchor="middle" x="255.688" y="-104.3" font-family="Times,serif" font-size="14.00">Autor</text>
</g>
<!-- Livro -->
<g id="node5" class="node"><title>Livro</title>
<ellipse fill="none" stroke="black" cx="348.688" cy="-18" rx="29.5104" ry="18"/>
<text text-anchor="middle" x="348.688" y="-13.8" font-family="Times,serif" font-size="14.00">Livro</text>
</g>
<!-- Autor&#45;&gt;Livro -->
<g id="edge1" class="edge"><title>Autor&#45;&gt;Livro</title>
<path fill="none" stroke="#baef4b" d="M278.42,-85.8679C292.808,-72.1762 311.348,-54.5332 325.771,-40.8078"/>
<polygon fill="#baef4b" stroke="#baef4b" points="278.289,-85.9924 267.943,-89.6261 274.667,-89.4392 271.045,-92.886 271.045,-92.886 271.045,-92.886 274.667,-89.4392 274.147,-96.1459 278.289,-85.9924 278.289,-85.9924"/>
<polygon fill="#baef4b" stroke="#baef4b" points="326.064,-40.5293 336.41,-36.8956 329.686,-37.0825 333.308,-33.6357 333.308,-33.6357 333.308,-33.6357 329.686,-37.0825 330.206,-30.3758 326.064,-40.5293 326.064,-40.5293"/>
</g>
<!-- Categoria -->
<g id="node3" class="node"><title>Categoria</title>
<ellipse fill="none" stroke="black" cx="348.688" cy="-108.5" rx="44.4664" ry="18"/>
<text text-anchor="middle" x="348.688" y="-104.3" font-family="Times,serif" font-size="14.00">Categoria</text>
</g>
<!-- Categoria&#45;&gt;Livro -->
<g id="edge2" class="edge"><title>Categoria&#45;&gt;Livro</title>
<path fill="none" stroke="#f31a2c" d="M348.688,-82.189C348.688,-70.9711 348.688,-57.7517 348.688,-46.3113"/>
<ellipse fill="none" stroke="#f31a2c" cx="348.688" cy="-86.4363" rx="4" ry="4"/>
<polygon fill="#f31a2c" stroke="#f31a2c" points="348.688,-46.0113 353.188,-36.0113 348.688,-41.0113 348.688,-36.0113 348.688,-36.0113 348.688,-36.0113 348.688,-41.0113 344.188,-36.0113 348.688,-46.0113 348.688,-46.0113"/>
</g>
<!-- Editora -->
<g id="node4" class="node"><title>Editora</title>
<ellipse fill="none" stroke="black" cx="447.688" cy="-108.5" rx="36.2732" ry="18"/>
<text text-anchor="middle" x="447.688" y="-104.3" font-family="Times,serif" font-size="14.00">Editora</text>
</g>
<!-- Editora&#45;&gt;Livro -->
<g id="edge3" class="edge"><title>Editora&#45;&gt;Livro</title>
<path fill="none" stroke="#96a6c6" d="M424.484,-86.7573C408.895,-72.8215 388.402,-54.5026 372.656,-40.4264"/>
<ellipse fill="none" stroke="#96a6c6" cx="427.912" cy="-89.8213" rx="4.00002" ry="4.00002"/>
<polygon fill="#96a6c6" stroke="#96a6c6" points="372.361,-40.1625 367.905,-30.1429 368.633,-36.8302 364.906,-33.4979 364.906,-33.4979 364.906,-33.4979 368.633,-36.8302 361.907,-36.8528 372.361,-40.1625 372.361,-40.1625"/>
</g>
</g>
</svg>
