<?xml version="1.0" encoding="UTF-8" standalone="no"?>
<!DOCTYPE svg PUBLIC "-//W3C//DTD SVG 1.1//EN"
 "http://www.w3.org/Graphics/SVG/1.1/DTD/svg11.dtd">
<!-- Generated by graphviz version 2.38.0 (20140413.2041)
 -->
<!-- Title: models_diagram Pages: 1 -->
<svg width="591pt" height="225pt"
 viewBox="0.00 0.00 590.69 225.00" xmlns="http://www.w3.org/2000/svg" xmlns:xlink="http://www.w3.org/1999/xlink">
<g id="graph0" class="graph" transform="scale(1 1) rotate(0) translate(4 221)">
<title>models_diagram</title>
<polygon fill="none" stroke="none" points="-4,4 -4,-221 586.688,-221 586.688,4 -4,4"/>
<!-- _diagram_info -->
<g id="node1" class="node"><title>_diagram_info</title>
<text text-anchor="start" x="8" y="-202.6" font-family="Times,serif" font-size="13.00">Models diagram</text>
<text text-anchor="start" x="8" y="-189.6" font-family="Times,serif" font-size="13.00">Date: Dec 16 2015 &#45; 10:13</text>
<text text-anchor="start" x="8" y="-176.6" font-family="Times,serif" font-size="13.00">Migration version: 20151216130820</text>
<text text-anchor="start" x="8" y="-163.6" font-family="Times,serif" font-size="13.00">Generated by RailRoady 1.4.2</text>
<text text-anchor="start" x="8" y="-150.6" font-family="Times,serif" font-size="13.00">http://railroady.prestonlee.com</text>
</g>
<!-- Autor -->
<g id="node2" class="node"><title>Autor</title>
<ellipse fill="none" stroke="black" cx="255.688" cy="-180.5" rx="30.9793" ry="18"/>
<text text-anchor="middle" x="255.688" y="-176.3" font-family="Times,serif" font-size="14.00">Autor</text>
</g>
<!-- Livro -->
<g id="node5" class="node"><title>Livro</title>
<ellipse fill="none" stroke="black" cx="348.688" cy="-90" rx="29.5104" ry="18"/>
<text text-anchor="middle" x="348.688" y="-85.8" font-family="Times,serif" font-size="14.00">Livro</text>
</g>
<!-- Autor&#45;&gt;Livro -->
<g id="edge1" class="edge"><title>Autor&#45;&gt;Livro</title>
<path fill="none" stroke="#38a4bf" d="M278.42,-157.868C292.808,-144.176 311.348,-126.533 325.771,-112.808"/>
<polygon fill="#38a4bf" stroke="#38a4bf" points="278.289,-157.992 267.943,-161.626 274.667,-161.439 271.045,-164.886 271.045,-164.886 271.045,-164.886 274.667,-161.439 274.147,-168.146 278.289,-157.992 278.289,-157.992"/>
<polygon fill="#38a4bf" stroke="#38a4bf" points="326.064,-112.529 336.41,-108.896 329.686,-109.083 333.308,-105.636 333.308,-105.636 333.308,-105.636 329.686,-109.083 330.206,-102.376 326.064,-112.529 326.064,-112.529"/>
</g>
<!-- Categoria -->
<g id="node3" class="node"><title>Categoria</title>
<ellipse fill="none" stroke="black" cx="348.688" cy="-180.5" rx="44.4664" ry="18"/>
<text text-anchor="middle" x="348.688" y="-176.3" font-family="Times,serif" font-size="14.00">Categoria</text>
</g>
<!-- Categoria&#45;&gt;Livro -->
<g id="edge2" class="edge"><title>Categoria&#45;&gt;Livro</title>
<path fill="none" stroke="#d912a8" d="M348.688,-154.189C348.688,-142.971 348.688,-129.752 348.688,-118.311"/>
<ellipse fill="none" stroke="#d912a8" cx="348.688" cy="-158.436" rx="4" ry="4"/>
<polygon fill="#d912a8" stroke="#d912a8" points="348.688,-118.011 353.188,-108.011 348.688,-113.011 348.688,-108.011 348.688,-108.011 348.688,-108.011 348.688,-113.011 344.188,-108.011 348.688,-118.011 348.688,-118.011"/>
</g>
<!-- Editora -->
<g id="node4" class="node"><title>Editora</title>
<ellipse fill="none" stroke="black" cx="447.688" cy="-180.5" rx="36.2732" ry="18"/>
<text text-anchor="middle" x="447.688" y="-176.3" font-family="Times,serif" font-size="14.00">Editora</text>
</g>
<!-- Editora&#45;&gt;Livro -->
<g id="edge3" class="edge"><title>Editora&#45;&gt;Livro</title>
<path fill="none" stroke="#79f645" d="M424.484,-158.757C408.895,-144.821 388.402,-126.503 372.656,-112.426"/>
<ellipse fill="none" stroke="#79f645" cx="427.912" cy="-161.821" rx="4.00002" ry="4.00002"/>
<polygon fill="#79f645" stroke="#79f645" points="372.361,-112.163 367.905,-102.143 368.633,-108.83 364.906,-105.498 364.906,-105.498 364.906,-105.498 368.633,-108.83 361.907,-108.853 372.361,-112.163 372.361,-112.163"/>
</g>
<!-- Permission -->
<g id="node6" class="node"><title>Permission</title>
<ellipse fill="none" stroke="black" cx="527.688" cy="-18" rx="49.3291" ry="18"/>
<text text-anchor="middle" x="527.688" y="-13.8" font-family="Times,serif" font-size="14.00">Permission</text>
</g>
<!-- Role -->
<g id="node7" class="node"><title>Role</title>
<ellipse fill="none" stroke="black" cx="528.688" cy="-180.5" rx="27" ry="18"/>
<text text-anchor="middle" x="528.688" y="-176.3" font-family="Times,serif" font-size="14.00">Role</text>
</g>
<!-- Role&#45;&gt;Permission -->
<g id="edge4" class="edge"><title>Role&#45;&gt;Permission</title>
<path fill="none" stroke="#c7fd2d" d="M524.317,-154.297C521.081,-132.518 517.572,-100.193 519.688,-72 520.324,-63.5179 521.526,-54.3361 522.809,-46.0356"/>
<ellipse fill="none" stroke="#c7fd2d" cx="524.961" cy="-158.426" rx="4.00001" ry="4.00001"/>
<polygon fill="#c7fd2d" stroke="#c7fd2d" points="522.818,-45.9796 528.88,-36.8417 523.629,-41.0458 524.439,-36.1119 524.439,-36.1119 524.439,-36.1119 523.629,-41.0458 519.999,-35.3822 522.818,-45.9796 522.818,-45.9796"/>
</g>
<!-- User -->
<g id="node8" class="node"><title>User</title>
<ellipse fill="none" stroke="black" cx="555.688" cy="-90" rx="27" ry="18"/>
<text text-anchor="middle" x="555.688" y="-85.8" font-family="Times,serif" font-size="14.00">User</text>
</g>
<!-- Role&#45;&gt;User -->
<g id="edge5" class="edge"><title>Role&#45;&gt;User</title>
<path fill="none" stroke="#31fcbc" d="M536.812,-152.871C540.239,-141.637 544.219,-128.591 547.639,-117.383"/>
<polygon fill="#31fcbc" stroke="#31fcbc" points="536.812,-152.872 529.589,-161.123 535.353,-157.654 533.894,-162.436 533.894,-162.436 533.894,-162.436 535.353,-157.654 538.198,-163.749 536.812,-152.872 536.812,-152.872"/>
<polygon fill="#31fcbc" stroke="#31fcbc" points="547.671,-117.276 554.894,-109.024 549.13,-112.494 550.589,-107.711 550.589,-107.711 550.589,-107.711 549.13,-112.494 546.285,-106.398 547.671,-117.276 547.671,-117.276"/>
</g>
<!-- User&#45;&gt;Permission -->
<g id="edge6" class="edge"><title>User&#45;&gt;Permission</title>
<path fill="none" stroke="#d0c0ea" d="M545.999,-64.7779C543.505,-58.544 540.81,-51.8046 538.273,-45.4634"/>
<ellipse fill="none" stroke="#d0c0ea" cx="547.567" cy="-68.6971" rx="4.00001" ry="4.00001"/>
<polygon fill="#d0c0ea" stroke="#d0c0ea" points="538.184,-45.241 538.648,-34.2849 536.327,-40.5986 534.47,-35.9562 534.47,-35.9562 534.47,-35.9562 536.327,-40.5986 530.292,-37.6275 538.184,-45.241 538.184,-45.241"/>
</g>
</g>
</svg>
